<svg id="Capa_1" data-name="Capa 1" xmlns="http://www.w3.org/2000/svg" viewBox="0 0 6137.76 2007.73"><defs><style>.cls-1{fill:#fff;}</style></defs><title>Available on the App Store</title><path d="M6140.62,1737.2c0,149.83-121.45,271.34-271.26,271.34H274.18C124.36,2008.56,2.86,1887,2.86,1737.2V272.13C2.86,122.31,124.36.81,274.18.81H5869.35c149.81,0,271.26,121.5,271.26,271.32V1737.2h0Z"/><path class="cls-1" d="M1453.6,960.41c-1.26-139.61,114.34-207.53,119.63-210.69-65.47-95.43-166.94-108.46-202.6-109.5-85.23-9-167.89,51-211.31,51-44.28,0-111.13-50.12-183.19-48.64-92.72,1.43-179.46,55.1-227,138.44-98.18,169.93-25,419.65,69.11,557,47.05,67.31,102,142.38,174,139.74,70.41-2.86,96.71-44.83,181.67-44.83,84.19,0,108.88,44.83,182.28,43.14,75.56-1.17,123.14-67.57,168.54-135.45,54.38-77.06,76.21-153,77.08-156.93-1.73-.61-146.71-56-148.18-223.25ZM1315,549.86c37.87-47.34,63.78-111.76,56.59-177.12-54.81,2.43-123.35,37.9-162.82,84.21-34.92,40.8-66.12,107.68-58.06,170.58,61.57,4.59,124.78-31.06,164.3-77.67Z"/><path class="cls-1" d="M2473.4,1468.07H2375l-53.9-169.32H2133.75l-51.34,169.32h-95.8l185.66-576.45h114.64l186.48,576.45Zm-168.54-240.36-48.74-150.52q-7.73-23.07-29.07-108.59h-1.73q-8.58,36.78-27.38,108.59L2150,1227.71Zm645.06,27.42q0,106-57.63,167.59-51.6,54.77-128.16,54.75-82.6,0-118.72-59v218.1H2553V1189q0-66.6-3.42-136.62h81.24l5.16,65.88h1.73q46.21-74.46,140.29-74.46,73.57,0,122.75,58.13,49.07,58.28,49.13,153.17Zm-94.11,3.38q0-60.69-27.38-100.1-30-41-80.42-41c-22.79,0-43.5,7.62-62,22.65s-30.68,35-36.35,59.47a120.56,120.56,0,0,0-4.29,28.11V1297q0,45.29,27.82,76.58t72.27,31.23c34.79,0,61.87-13.47,81.24-40.2S2855.81,1302.43,2855.81,1258.51Zm572.31-3.38q0,106-57.63,167.59-51.67,54.77-128.21,54.75-82.6,0-118.72-59v218.1H3031.2V1189q0-66.6-3.42-136.62H3109l5.16,65.88h1.73q46.14-74.46,140.29-74.46,73.5,0,122.79,58.13,49,58.28,49.13,153.17Zm-94.15,3.38q0-60.69-27.43-100.1-30-41-80.33-41c-22.79,0-43.5,7.62-62.09,22.65s-30.63,35-36.31,59.47c-2.82,11.44-4.33,20.75-4.33,28.11V1297q0,45.29,27.77,76.58c18.54,20.75,42.63,31.23,72.36,31.23,34.84,0,61.91-13.47,81.24-40.2S3334,1302.43,3334,1258.51Zm628.81,47.86q0,73.62-51.26,119.77-56.28,50.42-157.06,50.46-93.07,0-149.31-35.91l21.36-77q60.77,36,133.45,36,52.25,0,81.24-23.52c19.37-15.68,29.16-36.65,29.16-62.81,0-23.43-8.1-43.06-24-59s-42.42-30.8-79.55-44.44q-151.43-56.46-151.47-165.12,0-71,53.47-116.3t141.59-45.35q78.7,0,130.89,27.38l-23.18,75.28q-49-26.51-110.79-26.51c-32.58,0-58.15,8-76.43,24-15.38,14.25-23.18,31.62-23.18,52.24,0,22.74,8.88,41.63,26.56,56.44q23,20.47,83.8,44.44,74.48,30,109.49,70.09,35.29,40.15,35.23,100ZM4269,1121.72H4167.15v201.81q0,77,53.9,76.93c16.51,0,30.2-1.39,41-4.29l2.56,70.13q-27.3,10.2-71.84,10.22-54.72,0-85.57-33.4t-30.81-112.06V1121.55h-60.66v-69.31h60.66V976.13l90.73-27.38v103.48H4269v69.48Zm458.49,135.1q0,95.84-54.77,157.37-57.26,63.35-152.25,63.28-91.64,0-145.88-60.64t-54.33-153.08q0-96.62,56-158.19t151-61.6q91.51,0,147.1,60.73,53.16,58.87,53.08,152.13Zm-95.75,2.12q0-57.11-24.74-98.07-29.05-49.51-83-49.51c-37,0-65.38,16.5-84.71,49.51q-24.83,41-24.78,99.8,0,57.18,24.78,98.11c20,33,47.83,49.51,83.93,49.51q53,0,83-50.33c17-28,25.52-60.86,25.52-99Zm396.14-125.31a160.78,160.78,0,0,0-29.12-2.56q-48.74,0-75.3,36.82-23,32.49-23.05,82.08v218.1H4808V1183.32q.12-65.45-2.69-130.86h80.46l3.38,79.53h2.56c9.79-27.33,25.13-49.38,46.19-65.88a111.72,111.72,0,0,1,66.77-22.26,148.35,148.35,0,0,1,23.09,1.69l.09,88.1ZM5441,1240.58a216.55,216.55,0,0,1-3.38,41.89H5160.48q1.56,61.6,40.21,94.17,35,29,90.64,29,61.55,0,112.13-19.62l14.47,64.06q-59,25.73-139.38,25.69-96.71,0-151.91-56.83t-55.16-152.65q0-94,51.39-156.46,53.81-66.66,145.36-66.66,89.88,0,136.09,66.66,36.59,52.82,36.66,130.73Zm-88.08-24c.65-27.42-5.42-51-17.94-71-16-25.73-40.6-38.55-73.57-38.55-30.2,0-54.81,12.52-73.53,37.64-15.38,20-24.52,44-27.34,71.82l192.37.09Z"/><path class="cls-1" d="M2107.11,687.82a590,590,0,0,1-66.42-3.38V405.75a503,503,0,0,1,78.21-5.89c105.94,0,154.72,52.11,154.72,137.05C2273.61,634.89,2216,687.82,2107.11,687.82Zm15.51-252.23c-14.3,0-26.47.87-36.57,2.95V650.4c5.46.87,15.94,1.26,30.68,1.26,69.41,0,108.93-39.5,108.93-113.49C2225.65,472.2,2189.91,435.59,2122.62,435.59Zm303,254.35c-59.71,0-98.4-44.57-98.4-105.08,0-63.07,39.51-108,101.78-108,58.84,0,98.4,42.45,98.4,104.69,0,63.85-40.77,108.42-101.78,108.42ZM2427.38,510c-32.8,0-53.81,30.67-53.81,73.55,0,42.06,21.45,72.73,53.38,72.73s53.38-32.79,53.38-73.59c0-41.58-21-72.68-52.95-72.68Zm440.51-29L2804,685.31h-41.64l-26.47-88.71a672.58,672.58,0,0,1-16.42-66h-.87c-3.34,22.26-9.66,44.57-16.38,66L2674,685.31H2632L2571.84,481h46.66l23.14,97.11q8.19,34.7,13.86,65.58h.87c3.34-17.2,8.8-38.68,16.81-65.15l29-97.5h37L2767,576.5c6.72,23.13,12.17,45.83,16.42,67.27h1.21a587.91,587.91,0,0,1,13.86-67.27l24.83-95.43,44.58,0Zm235.27,204.28h-45.41V568c0-36.13-13.86-54.23-41.2-54.23-26.91,0-45.41,23.13-45.41,50v121.5h-45.41V539.42c0-18.06-.43-37.43-1.69-58.43H2964l2.12,31.53h1.26c12.22-21.83,37-35.69,64.77-35.69,42.89,0,71.06,32.79,71.06,86.16l0,122.32Zm125.22,0h-45.45v-298h45.45Zm165.55,4.63c-59.66,0-98.4-44.57-98.4-105.08,0-63.07,39.51-108,101.73-108,58.88,0,98.4,42.45,98.4,104.69,0,63.85-40.77,108.42-101.73,108.42ZM3395.62,510c-32.8,0-53.81,30.67-53.81,73.55,0,42.06,21.49,72.73,53.34,72.73s53.38-32.79,53.38-73.59c0-41.58-20.93-72.68-52.9-72.68Zm279.07,175.3-3.29-23.52h-1.21c-13.86,18.93-34.1,28.16-59.75,28.16-36.61,0-62.61-25.64-62.61-60.12,0-50.42,43.72-76.5,119.41-76.5v-3.77c0-26.9-14.25-40.37-42.42-40.37-20.15,0-37.82,5.07-53.38,15.16l-9.23-29.84c18.89-11.78,42.46-17.67,70.15-17.67,53.38,0,80.33,28.16,80.33,84.51v75.24c0,20.62.91,36.6,2.95,48.77l-40.94,0Zm-6.24-101.75c-50.43,0-75.74,12.22-75.74,41.19,0,21.44,13,31.92,31.15,31.92,23.09,0,44.58-17.63,44.58-41.58Zm264.73,101.75-2.12-32.79h-1.26c-13,24.78-35,37.43-65.6,37.43-49.26,0-85.74-43.32-85.74-104.26,0-63.89,37.82-108.9,89.47-108.9,27.34,0,46.71,9.23,57.63,27.77h.91V387.3h45.45v243c0,19.75.48,38.25,1.69,55.05h-40.43Zm-6.72-120.2c0-28.59-18.93-53-47.83-53-33.67,0-54.25,29.84-54.25,71.86,0,41.19,21.36,69.39,53.34,69.39,28.55,0,48.74-24.82,48.74-54.23v-34Zm333.62,124.84c-59.66,0-98.35-44.57-98.35-105.08,0-63.07,39.51-108,101.73-108,58.88,0,98.4,42.45,98.4,104.69,0,63.85-40.73,108.42-101.78,108.42ZM4261.78,510C4229,510,4208,540.68,4208,583.56c0,42.06,21.45,72.73,53.34,72.73s53.38-32.79,53.38-73.59c.09-41.58-20.93-72.68-52.95-72.68Zm344.28,175.3h-45.45V568c0-36.13-13.86-54.23-41.2-54.23-26.91,0-45.36,23.13-45.36,50v121.5h-45.45V539.42c0-18.06-.43-37.43-1.69-58.43h39.95l2.12,31.53h1.26c12.17-21.83,37-35.74,64.73-35.74,42.89,0,71.1,32.79,71.1,86.16Zm305.5-170.23h-50v99.19c0,25.25,8.75,37.86,26.43,37.86a89.46,89.46,0,0,0,20.15-2.12l1.26,34.48c-8.8,3.38-20.58,5.07-35.23,5.07-35.79,0-57.19-19.75-57.19-71.47v-103h-29.81V481H4817V443.61l44.58-13.47V481h50v34.09Zm240.38,170.23h-45.36V568.88c0-36.56-13.82-55.05-41.2-55.05-23.53,0-45.45,16-45.45,48.34V685.31h-45.36v-298h45.36V510h.91c14.3-22.26,35-33.22,61.44-33.22,43.24,0,69.67,33.61,69.67,87v121.5Zm246.27-91.22H5262c.87,38.68,26.47,60.51,64.38,60.51,20.15,0,38.69-3.38,55.07-9.66l7.06,31.53c-19.32,8.4-42.07,12.6-68.54,12.6-63.91,0-101.73-40.37-101.73-103s38.73-109.72,96.62-109.72c52.21,0,85,38.68,85,97.11a87.48,87.48,0,0,1-1.56,20.58Zm-41.64-32.36c0-31.53-15.9-53.8-44.93-53.8-26.08,0-46.71,22.7-49.65,53.8h94.58Z"/></svg>