<svg id="Capa_1" data-name="Capa 1" xmlns="http://www.w3.org/2000/svg" xmlns:xlink="http://www.w3.org/1999/xlink" viewBox="0 0 6137.76 2007.73"><defs><style>.cls-1{fill:none;}.cls-2{clip-path:url(#clip-path);}.cls-3{fill:url(#Degradado_sin_nombre);}.cls-4{fill:url(#Degradado_sin_nombre_2);}.cls-5{fill:url(#Degradado_sin_nombre_3);}.cls-6{fill:url(#Degradado_sin_nombre_4);}.cls-7{fill:#f9f9f9;}.cls-8{fill:#f9f9fa;}</style><clipPath id="clip-path"><path class="cls-1" d="M1333,884.57,1056.23,724.79,522.4,416.54c-29.64-17.11-59.17-6.74-59.17,29V1701.37c0,26.81,21.11,38.36,46.86,23.51s546.15-315.35,546.15-315.35L1333,1249.76l266-153.58c31.21-18,28.21-42.76,1.87-56.94S1333,884.57,1333,884.57Z"/></clipPath><linearGradient id="Degradado_sin_nombre" x1="3931.06" y1="-1483.43" x2="3931.06" y2="-1370.13" gradientTransform="translate(-46366.71 18188.49) scale(12)" gradientUnits="userSpaceOnUse"><stop offset="0" stop-color="#257cb0"/><stop offset="0.29" stop-color="#4a93b5"/><stop offset="0.77" stop-color="#78bcbb"/><stop offset="1" stop-color="#89cfbd"/></linearGradient><linearGradient id="Degradado_sin_nombre_2" x1="3902.5" y1="-1455.31" x2="3974.97" y2="-1455.31" gradientTransform="translate(-46366.71 18188.49) scale(12)" gradientUnits="userSpaceOnUse"><stop offset="0" stop-color="#52c1ad"/><stop offset="1" stop-color="#dee89a"/></linearGradient><linearGradient id="Degradado_sin_nombre_3" x1="3938.73" y1="-1426.78" x2="3938.73" y2="-1369.71" gradientTransform="translate(-46366.71 18188.49) scale(12)" gradientUnits="userSpaceOnUse"><stop offset="0" stop-color="#ec413d"/><stop offset="0.17" stop-color="#da4452"/><stop offset="0.57" stop-color="#b0487a"/><stop offset="0.86" stop-color="#954a92"/><stop offset="1" stop-color="#8a4a9d"/></linearGradient><linearGradient id="Degradado_sin_nombre_4" x1="3980.48" y1="-1441.99" x2="3980.48" y2="-1411.56" gradientTransform="translate(-46366.71 18188.49) scale(12)" gradientUnits="userSpaceOnUse"><stop offset="0" stop-color="#f58879"/><stop offset="0.12" stop-color="#f69079"/><stop offset="0.71" stop-color="#fcb877"/><stop offset="1" stop-color="#fec874"/></linearGradient></defs><title>Android App on Google Play</title><path d="M6140.62,1737.2c0,149.83-121.45,271.34-271.26,271.34H274.18C124.36,2008.56,2.86,1887,2.86,1737.2V272.13C2.86,122.31,124.36.81,274.18.81H5869.35c149.81,0,271.26,121.5,271.26,271.32V1737.2h0Z"/><g class="cls-2"><path class="cls-3" d="M463.24,387.35V1747l685.61-679.81Z"/></g><g class="cls-2"><path class="cls-4" d="M1333,884.57,1056.23,724.79l-593-342.38v4.94l685.61,679.82Z"/></g><g class="cls-2"><path class="cls-5" d="M463.24,1747v4.94l593-342.4L1333,1249.75l-184.13-182.58Z"/></g><g class="cls-2"><path class="cls-6" d="M1333,884.57l-184.14,182.6L1333,1249.75l316.28-182.59Z"/></g><path class="cls-7" d="M4779.56,1332.95q-38.63,0-70.52-14.24t-53.59-43.82h-4.32a531.65,531.65,0,0,1,4.32,65.65v162.71h-59.86V930.32h48.7l8.28,54.12h2.88q23.11-32.49,53.77-46.9t70.33-14.44q78.66,0,121.4,53.76t42.76,150.79q0,97.42-43.45,151.37t-120.69,53.92Zm-8.66-359q-60.61,0-87.66,33.55t-27.79,106.8v13.33q0,83.36,27.79,119.26t89.1,35.88q51.26,0,80.31-41.47t29-114.38q0-73.93-29-113.46T4770.89,974Zm311.48,351.74H5022.5V764.36h59.88Zm344.32,0-11.92-56.28h-2.88q-29.59,37.19-59,50.33t-73.4,13.18q-58.8,0-92.18-30.3t-33.37-86.22q0-119.75,191.57-125.56l67.13-2.17v-24.53q0-46.55-20-68.72t-64-22.2q-49.45,0-111.84,30.3l-18.41-45.82a281.44,281.44,0,0,1,64.06-24.89,277.28,277.28,0,0,1,69.8-9q70.71,0,104.81,31.38t34.08,100.67v269.84h-44.38Zm-135.29-42.19q55.89,0,87.84-30.66t31.93-85.88v-35.71l-59.92,2.51q-71.42,2.57-103,22.22t-31.56,61.15q0,32.45,19.67,49.4t55,17Zm214.43-353.21H5570l86.59,225.49Q5685.12,1233,5692,1267.3h2.88q4.7-18.43,19.65-63t97.94-274h64.25l-169.94,450.25q-25.24,66.74-59,94.74T5565,1503.24a241.76,241.76,0,0,1-54.14-6.12v-48a209.22,209.22,0,0,0,44.39,4.33q61.7,0,88-69.28l22-56.27L5505.83,930.32ZM3670.17,967.07c19,15.73,58.71,48.78,58.71,111.67,0,61.16-34.74,90.17-69.48,117.42-10.75,10.74-23.16,22.35-23.16,40.57s12.4,28.09,21.53,35.55l29.78,23.11c36.38,30.61,69.43,58.75,69.43,115.84,0,77.74-75.26,156.28-217.49,156.28-119.94,0-177.8-57-177.8-118.28,0-29.76,14.82-71.92,63.68-100.9,51.24-31.43,120.76-35.52,158-38.06-11.61-14.87-24.81-30.59-24.81-56.18,0-14,4.15-22.32,8.27-32.29-9.13.84-18.22,1.67-26.5,1.67-87.64,0-137.26-65.34-137.26-129.82,0-38.05,17.39-80.26,52.91-110.82,47.16-38.87,103.39-45.5,148.09-45.5h170.33l-52.93,29.77h-51.25Zm-58.74,367.22c-6.61-.86-10.76-.86-19-.86-7.44,0-52.16,1.69-86.85,13.3-18.19,6.56-71.14,26.41-71.14,85.16s57.1,100.93,145.6,100.93c79.34,0,121.57-38.12,121.57-89.35,0-42.26-27.3-64.5-90.18-109.18Zm24-157.16c19-19,20.63-45.48,20.63-60.38,0-59.53-35.54-152.16-104.17-152.16-21.53,0-44.66,10.74-57.9,27.3-14,17.36-18.22,39.67-18.22,61.2,0,55.4,32.26,147.22,103.42,147.22,20.68,0,43-9.92,56.24-23.17ZM3149.5,1321.05c-131.27,0-201.46-102.4-201.46-194.89,0-108.18,88.33-200.62,213.89-200.62,121.32,0,197.29,94.92,197.29,194.85,0,97.39-75.1,200.65-209.73,200.65Zm103.2-66.88c19.85-26.45,24.8-59.46,24.8-91.69,0-72.68-34.68-211.38-137.08-211.38-27.24,0-54.48,10.75-74.29,28.13-32.21,28.86-38,65.21-38,100.75,0,81.68,40.46,216.24,140.4,216.24,32.2,0,65.23-15.66,84.18-42ZM2702,1321.05c-131.29,0-201.49-102.4-201.49-194.89,0-108.18,88.37-200.62,213.89-200.62,121.36,0,197.31,94.92,197.31,194.85C2911.68,1217.79,2836.56,1321.05,2702,1321.05Zm103.22-66.88c19.81-26.45,24.78-59.46,24.78-91.69,0-72.68-34.71-211.38-137.1-211.38-27.23,0-54.49,10.75-74.29,28.13-32.21,28.86-38,65.21-38,100.75,0,81.68,40.44,216.24,140.39,216.24C2753.19,1296.23,2786.2,1280.57,2805.18,1254.18Zm-367.79,53.93-118.73,27.4c-48.17,7.49-91.32,14.08-137,14.08-229.15,0-316.28-168.53-316.28-300.53,0-161,123.67-310.42,335.39-310.42a478.35,478.35,0,0,1,127,17.42c62.26,17.44,91.31,39,109.58,51.47l-68.93,65.58-29,6.61,20.75-33.22c-28.21-27.37-79.73-78-177.65-78-131.17,0-230,99.66-230,244.92,0,156,112.92,303,293.85,303,53.18,0,80.52-10.78,105.44-20.76V1162l-125.33,6.64,66.38-35.73h176l-21.56,20.75c-5.85,5-6.66,6.68-8.31,13.26-.86,7.49-1.64,31.58-1.64,39.88v101.32h0Z"/><path class="cls-7" d="M3932.55,1284.2c-27.41-2.5-33.15-7.45-33.15-39.86V774.49c.17-1.79.28-3.62.44-5.35,3.35-29,11.64-34,37.4-49H3818.5L3756.22,750h63.47v.37l0-.3v512.51c0,16.57-3.28,19.09-22.39,44h147l30.72-18.22c-14.1-1.72-28.24-2.52-42.37-4.18Zm337.8,7.63c-9,5-18.11,10.75-27.14,14.84-27.25,12.36-55.27,15.67-80.05,15.67-26.32,0-67.57-1.7-109.66-32.17-58.49-41.26-84-112.15-84-174,0-127.76,103.87-190.42,188.78-190.42,29.69,0,60.23,7.4,85,23.1,41.19,27.16,51.9,62.6,57.64,81.58l-193.69,78.35-63.49,4.94c20.58,104.7,91.48,165.66,169.82,165.66,42,0,72.55-14.81,100.57-28.8l-43.69,41.21Zm-77.47-245.71c15.64-5.75,23.88-10.72,23.88-22.25,0-33-37.08-70.9-81.64-70.9-33,0-94.8,25.57-94.8,114.59,0,14,1.66,28.85,2.51,43.74l150-65.18Zm157-114.68v54.4h-6.61v-54.4h-18V925.8h42.6v5.64h-18Zm74.16,54.4v-54.9h-.3L4407,985.83h-5.17l-16.9-54.9h-.22v54.9h-6v-60H4389l15.29,48.53h.22l15.06-48.53H4430v60h-5.94Z"/><path class="cls-8" d="M2030.31,577h-41.26q0-8.51-11.74-48.22h-59.56q-12.11,39.06-12.12,48.22h-38.8q0-5,30.1-82.5t30.1-85.33h48.73q0,7.34,27.26,84.11T2030.31,577Zm-59.56-72.84q-22-66.51-22-71.93h-2.06q0,5-22.81,71.93h46.92ZM2196.53,577H2164.7q0-5.29-35.45-55.81-37.12-53.24-42.27-72.83h-2.06a454,454,0,0,1,3.23,51q0,31.84,1.8,77.6h-31.72q1.92-40,1.93-87.78,0-47.05-1.93-80.05h38.28q0,6.84,31.84,54.53,33.9,50.65,38.93,68.71h1.93a486.67,486.67,0,0,1-3.1-51.56q0-34.92-1.8-71.68h32.23q-1.82,32-1.8,80.05Q2194.71,537.66,2196.53,577Zm186.83-89.72q0,36.61-23.46,63.94t-65.75,27.32q-19.08,0-52.6-1.55,1.67-38.93,1.68-87.78,0-46.91-1.68-80.05h22.56q5.54,0,16.5-.38c7.29-.25,12.07-.38,14.3-.38q46.53,0,67.49,23.21t21,55.68Zm-35.19,5.54q0-24.75-14.44-41.71t-44.09-16.94a134.37,134.37,0,0,0-15.22,1.16q1.28,25.79,1.28,53.88,0,30.82,1.28,61.1a85.29,85.29,0,0,0,16.75,1.68q27.72,0,41.05-17.22t13.37-42ZM2555.64,577h-38.16q-15-45.63-22.94-56.33T2468.77,510q-7.49,0-14.3.13,0,33.14,1.16,66.9h-35.83q1.67-38.93,1.68-87.78,0-46.91-1.68-80.05h22.29q3.87,0,16.18-.38t22.75-.39q59.17,0,59.17,40.48,0,32.09-33.77,44.74v1.93q13,3.6,22.81,20.29T2555.64,577Zm-48.34-118.6q0-25.65-33-25.65a113.25,113.25,0,0,0-21.4,1.8q1.42,20,1.42,52.08c4.73.18,8.73.25,12,.25Q2507.3,486.89,2507.31,458.4ZM2740.42,490q0,39.57-24.24,65.62t-59.94,26q-34,0-57-23.92T2576.32,497q0-39.56,24.24-65.62t59.94-26q34,0,57,23.84T2740.42,490Zm-35.57,3.73q0-26.95-13.79-43.7t-34-16.75q-18.83,0-32,16.88t-13.16,42.67q0,26.8,13.86,43.63t34,16.82q18.81,0,32-17t13.15-42.6ZM2813.31,577h-36.48q1.67-40,1.68-87.78,0-47.05-1.68-80.05h36.48q-1.67,32.49-1.68,80.05Q2811.63,537.8,2813.31,577Zm186.84-89.72q0,36.61-23.46,63.94t-65.75,27.32q-19.08,0-52.6-1.55Q2860,538,2860,489.2q0-46.91-1.68-80.05h22.56q5.54,0,16.5-.38t14.3-.38q46.53,0,67.49,23.21t21,55.68ZM2965,492.81q0-24.75-14.44-41.71t-44.09-16.94a134.36,134.36,0,0,0-15.22,1.16q1.28,25.79,1.28,53.88,0,30.82,1.28,61.1a85.3,85.3,0,0,0,16.75,1.68q27.72,0,41.05-17.22T2965,492.81ZM3248,577h-41.26q0-8.51-11.75-48.22h-59.56q-12.11,39.06-12.12,48.22h-38.78q0-5,30.1-82.5t30.1-85.33h48.73q0,7.34,27.26,84.11T3248,577Zm-59.56-72.84q-22-66.51-22.06-71.93h-2.06q0,5-22.8,71.93h46.92Zm209.92-51q0,30.82-22.89,45.5t-56.14,14.7c-4,0-6.91-.08-8.64-.25q0,24.25,1.42,63.94h-36.23q1.67-37.24,1.68-87.78,0-46.4-1.68-80.05h22.43q4.77,0,18.3-.38t23.46-.39q24.48,0,41.38,11.09t16.91,33.63Zm-33.25,7.09q0-27.58-36.61-27.59a104,104,0,0,0-19.33,1.93q1.42,24.37,1.42,55.18c2.15.18,4.64.25,7.48.25Q3365.13,490,3365.13,460.2ZM3553,453.11q0,30.82-22.87,45.5T3474,513.31c-4,0-6.91-.08-8.64-.25q0,24.25,1.42,63.94h-36.23q1.67-37.24,1.68-87.78,0-46.4-1.68-80.05h22.43q4.77,0,18.3-.38t23.46-.39q24.48,0,41.38,11.09T3553,453.11Zm-33.25,7.09q0-27.58-36.61-27.59a104,104,0,0,0-19.33,1.93q1.42,24.37,1.42,55.18c2.15.18,4.64.25,7.48.25Q3519.74,490,3519.74,460.2Zm286,29.78q0,39.57-24.24,65.62t-59.94,26q-34,0-57-23.92T3641.67,497q0-39.56,24.24-65.62t59.94-26q34,0,57,23.84T3805.77,490Zm-35.58,3.73q0-26.95-13.79-43.7t-34-16.75q-18.83,0-32,16.88t-13.15,42.67q0,26.8,13.86,43.63t34,16.82q18.83,0,32-17t13.15-42.6ZM3980.49,577h-31.84q0-5.29-35.45-55.81-37.12-53.24-42.28-72.83h-2.06a454,454,0,0,1,3.23,51q0,31.84,1.8,77.6h-31.72q1.93-40,1.93-87.78,0-47.05-1.93-80.05h38.28q0,6.84,31.84,54.53,33.91,50.65,38.93,68.71h1.93a486.41,486.41,0,0,1-3.1-51.56q0-34.92-1.8-71.68h32.23q-1.82,32-1.8,80.05Q3978.69,537.66,3980.49,577Z"/></svg>